# xmcd
#
# Track frame offsets:
#	150
#	18320
#	37500
#	59134
#	92276
#	130044
#	141048
#	158813
#	172066
#	197245
#	211317
#	231532
#	249783
#	264597
#	291164
#	308724
#	322414
#	341621
#
# Disc length: 4697 seconds
#
# Revision: 1
# Processed by: cddbd v1.5.2PL0 Copyright (c) Steve Scherf et al.
# Submitted via: audiograbber 1.83.01
#
DISCID=05125712
DTITLE=Various Artist - The Smooth Album CD 1
DYEAR=2006
DGENRE=Soul
TTITLE0=Marvin Gaye - Sexual Healing
TTITLE1=Earth, Wind and Fire - After The Love Has Gone
TTITLE2=The Isley Brothers - Summer Breeze
TTITLE3=Maze and Frankie Beverly - Joy And Pain
TTITLE4=Marlena Shaw - Woman Of The Ghetto
TTITLE5=Elza Soares - Mas Que Nada
TTITLE6=Kenny G - Songbird
TTITLE7=Billie Holiday - God Bless The Child
TTITLE8=Miles Davis - Time After Time
TTITLE9=Mel Torme - You're Getting To Be A Habit With Me
TTITLE10=Guru's Jazzmatazz and N'dea Davenport - Trust Me
TTITLE11=Gil Scott-Heron - The Bottle
TTITLE12=Grover Washington Jr. - Soulful Strut
TTITLE13=Donald Byrd - I've Got It Bad (And That Ain't Good)
TTITLE14=Martin Taylor - Midnight At The Oasis
TTITLE15=Dinah Washington - Lover Man
TTITLE16=Ronny Jordan and Roy Ayers - Mystic Voyage
TTITLE17=Sly and The Family Stone - Everyday People
EXTD=
EXTT0=
EXTT1=
EXTT2=
EXTT3=
EXTT4=
EXTT5=
EXTT6=
EXTT7=
EXTT8=
EXTT9=
EXTT10=
EXTT11=
EXTT12=
EXTT13=
EXTT14=
EXTT15=
EXTT16=
EXTT17=
PLAYORDER=
